REM MD5 6994375faec94c5dc1cfe04aedb637ad
FILE "Simple 1500 Series Vol. 2 - The Shougi (Japan) (Culture Publishers).bin" BINARY
  TRACK 01 MODE2/2352
    INDEX 01 00:00:00
  TRACK 02 AUDIO
    INDEX 00 00:28:67
    INDEX 01 00:30:67
  TRACK 03 AUDIO
    INDEX 00 03:23:09
    INDEX 01 03:25:09
  TRACK 04 AUDIO
    INDEX 00 06:07:23
    INDEX 01 06:09:23
  TRACK 05 AUDIO
    INDEX 00 08:12:16
    INDEX 01 08:14:16
  TRACK 06 AUDIO
    INDEX 00 13:46:65
    INDEX 01 13:48:65
REM LEADOUT 15:51:58
